<svg xmlns="http://www.w3.org/2000/svg" width="1562" height="730"><path fill="#121A30" d="M0 0h1562v730H0z"/><path fill="#89DFCD" d="M349.506 222.918c8.948 1.554 16.46 1.147 25.369-.418 12.491-2.169 21.29-3.095 32.125 4.5 3.01 2.283 5.98 4.615 8.878 7.04 7.883 6.506 16.68 9.281 26.345 12.228 7.201 2.29 14.92 4.955 18.777 11.92l1.45 2.605c1.565 3.238 2.965 6.516 4.358 9.831 3.61 8.54 7.334 14.948 14.192 21.376a762 762 0 0 1 5.25 5l2.39 2.188c6.929 8.258 7.902 15.137 7.337 25.759-.644 12.923.515 24.131 4.534 36.553 2.48 7.67 4.32 14.859.985 22.555a132 132 0 0 1-2.058 3.82l-1.089 2.06c-2.796 5.237-5.79 10.363-8.904 15.417-3.694 6.769-4.542 14.258-5.77 21.773-1.708 9.644-4.53 16.147-12.675 21.875-2.927 1.886-5.923 3.634-8.937 5.375-9.964 5.954-16.617 12.623-23.39 21.97-4.722 6.41-9.907 10.792-17.673 12.655-3.273.383-6.52.455-9.812.5-13.332.473-23.69 4.381-35.833 9.66-7.411 3.148-13.908 5.56-21.898 3.037-2.694-1.093-5.325-2.274-7.957-3.51-12.782-5.832-23.658-8.782-37.74-9.117-8.098-.332-15.027-2.537-20.76-8.57-3.044-3.638-5.89-7.417-8.613-11.3-5.57-7.697-12.686-12.794-21.012-17.262-3.2-1.73-6.224-3.575-9.187-5.688l-2.145-1.516c-5.92-6.473-6.882-14.947-8.23-23.296-2.01-11.172-5.54-19.575-11.813-28.938-5.623-8.48-7.86-15.75-6-26 .862-2.896 1.915-5.72 2.938-8.562 4.206-11.736 3.685-23.93 3.484-36.237-.121-14.467-.121-14.467 4.894-19.691L233 301q1.48-1.557 2.957-3.117 2.168-2.095 4.338-4.188c2.7-2.58 2.7-2.58 4.705-5.695h2l.762-1.523 3.008-6.016.996-1.995q1.064-2.125 2.13-4.249a522 522 0 0 0 4.565-9.28c4.476-9.351 9.078-14.299 18.98-17.8a740 740 0 0 1 7.872-2.45c10.456-3.359 18.291-7.9 26.812-14.812 12.681-10.249 21.836-9.689 37.38-6.957"/><path fill="#88DCCB" d="M349.506 222.918c8.948 1.554 16.46 1.147 25.369-.418 12.491-2.169 21.29-3.095 32.125 4.5 3.01 2.283 5.98 4.615 8.878 7.04 7.883 6.506 16.68 9.281 26.345 12.228 7.201 2.29 14.92 4.955 18.777 11.92l1.45 2.605c1.565 3.238 2.965 6.516 4.358 9.831 3.61 8.54 7.334 14.948 14.192 21.376a762 762 0 0 1 5.25 5l2.39 2.188c6.929 8.258 7.902 15.137 7.337 25.759-.644 12.923.515 24.131 4.534 36.553 2.48 7.67 4.32 14.859.985 22.555a132 132 0 0 1-2.058 3.82l-1.089 2.06c-2.796 5.237-5.79 10.363-8.904 15.417-3.694 6.769-4.542 14.258-5.77 21.773-1.708 9.644-4.53 16.147-12.675 21.875-2.927 1.886-5.923 3.634-8.937 5.375-9.964 5.954-16.617 12.623-23.39 21.97-4.722 6.41-9.907 10.792-17.673 12.655-3.273.383-6.52.455-9.812.5-13.332.473-23.69 4.381-35.833 9.66-7.411 3.148-13.908 5.56-21.898 3.037-2.694-1.093-5.325-2.274-7.957-3.51-12.782-5.832-23.658-8.782-37.74-9.117-8.098-.332-15.027-2.537-20.76-8.57-3.044-3.638-5.89-7.417-8.613-11.3-5.57-7.697-12.686-12.794-21.012-17.262-3.2-1.73-6.224-3.575-9.187-5.688l-2.145-1.516c-5.92-6.473-6.882-14.947-8.23-23.296-2.01-11.172-5.54-19.575-11.813-28.938-5.623-8.48-7.86-15.75-6-26 .862-2.896 1.915-5.72 2.938-8.562 4.206-11.736 3.685-23.93 3.484-36.237-.121-14.467-.121-14.467 4.894-19.691L233 301q1.48-1.557 2.957-3.117 2.168-2.095 4.338-4.188c2.7-2.58 2.7-2.58 4.705-5.695h2l.762-1.523 3.008-6.016.996-1.995q1.064-2.125 2.13-4.249a522 522 0 0 0 4.565-9.28c4.476-9.351 9.078-14.299 18.98-17.8a740 740 0 0 1 7.872-2.45c10.456-3.359 18.291-7.9 26.812-14.812 12.681-10.249 21.836-9.689 37.38-6.957m-34.318 19.02C307.098 248.09 299.867 252.284 290 255q-3.505.988-7 2l-2.836.797c-7.099 2.665-9.369 7.387-12.42 13.92-1.41 3.137-2.75 6.299-4.08 9.47-3.649 8.138-8.95 13.882-15.129 20.172l-1.742 1.83C245 305 245 305 243.003 306.674c-3.334 3.075-4.848 5.193-5.472 9.762a156.97 156.97 0 0 0 .227 10.246c.197 3.691.269 7.384.32 11.08l.03 2.181c.032 9.754-2.743 18.05-6.272 27.014-1.623 5.908-1.592 10.09 1.21 15.48q1.327 2.297 2.704 4.563a2502 2502 0 0 1 2.672 4.563l1.317 2.24c2.961 5.157 5.52 10.124 6.886 15.947l.727 3.09c.646 3.149 1.163 6.295 1.648 9.473 1.356 8.2 3.342 12.812 10.078 17.753a162 162 0 0 0 6.719 4.211c10.927 6.503 18.13 13.348 25.89 23.536 5.308 6.996 5.308 6.996 12.918 10.82 3.517.38 6.991.546 10.524.656 10.032.328 17.975 1.41 27.113 5.688l2.367 1.093q2.326 1.087 4.622 2.237c6.534 3.105 12.415 4.045 19.431 1.867 2.747-1.092 5.414-2.288 8.088-3.549 9.192-4.184 16.399-6.88 26.563-7.125 11.838.078 11.838.078 22.289-4.566l2.023-2.496 2.254-2.715q2.856-3.663 5.684-7.348c6.582-8.508 13.473-13.925 22.753-19.2 7.188-4.128 7.188-4.128 12.684-10.175a133 133 0 0 0 1.438-6.875q.392-2.037.789-4.074.718-3.753 1.421-7.508c2.439-11.863 8.018-21.39 14.715-31.34 3.011-5.893 3.174-10.135 1.203-16.293q-1-2.925-2.003-5.847c-3.873-12.163-4.112-23.382-3.479-35.98.577-8.082.577-8.082-2.408-15.36L480 307l-2.687-2.937c-2.045-2.285-2.045-2.285-4.313-2.063v-2h-2l-.832-1.82c-1.196-2.457-1.196-2.457-3.855-5.055-5.393-6.127-8.542-14.101-11.81-21.523l-1.44-3.164-1.215-2.817c-4.744-6.73-12.673-8.79-20.223-11.058-11.659-3.718-19.688-8.726-29.117-16.5L400 236l-1.758-1.5c-5.674-4.106-12.764-2.388-19.242-1.5a507 507 0 0 0-6.062 1.063c-10.744 1.866-20.752.873-31.403-.995-11.78-2.065-17.199 1.738-26.347 8.87"/><path fill="#73D1D8" d="M1246 302v116h11v4l-29 1-1-13-1.562 2.625c-3.152 4.7-7.129 8.22-12.188 10.75-9.388 1.805-16.155.779-24.25-4.375-6.945-4.808-12.138-12.08-14.527-20.223-2.123-12.47-1.012-23.522 6.34-34.027 3.023-3.758 6.283-6.918 10.187-9.75l1.695-1.258c6.47-4.005 13.966-3.529 21.305-2.742 6.499 1.758 8.514 4.617 13 10l1-53h-16v-4l1.785-.076c2.718-.117 5.435-.24 8.152-.361l2.807-.12c5.127-.234 10.193-.596 15.286-1.244 1.98-.2 3.979-.199 5.97-.199"/><path fill="#75D4DB" d="m978 352 1 14 2.688-3.75c3.38-4.501 7.002-8.163 12.312-10.25 2.633-.22 5.12-.334 7.75-.312l2.171.017c5.993.137 11.08.455 15.626 4.76 3.794 4.359 4.576 6.864 4.453 12.535h2l.75-2.687c2.525-6.692 7.03-10.155 13.25-13.313 6.547-2.187 15.209-2.268 21.5.625 5.3 3.165 8.538 7.52 10.5 13.375.24 2.5.24 2.5.227 5.157v3.033l-.032 3.236-.008 3.341c-.011 3.516-.037 7.03-.062 10.546q-.016 3.579-.027 7.158-.035 8.764-.098 17.529h12v5h-41v-4h12q-.141-11.37-.317-22.742-.058-3.867-.105-7.734c-.046-3.709-.104-7.417-.164-11.126l-.035-3.485c.228-8.552.228-8.552-3.379-15.913-6.028-.52-10.144.135-15 4-7.447 6.905-9.693 15.033-10.205 24.986a800 800 0 0 0-.111 4.475l-.063 2.396q-.097 3.759-.184 7.518l-.13 5.121A6502 6502 0 0 0 1025 418h11v4h-39v-4h11q-.141-11.613-.317-23.224a3005 3005 0 0 1-.105-7.9c-.046-3.786-.104-7.571-.164-11.356l-.035-3.568-.06-3.336-.04-2.927c-.302-2.91-.973-5.076-2.279-7.689-3.233-1.617-6.495-1.432-10-1-7.17 2.843-10.746 7.892-13.814 14.844-3.249 8.904-2.753 18.431-2.874 27.781q-.05 2.678-.103 5.355-.124 6.51-.209 13.02h11v4h-40v-4h12v-61h-12v-4c19.968-1.148 19.968-1.148 29-1"/><path fill="#74D2D9" d="M620.676 308.11c2.91 1.115 4.407.926 7.324-.11l2-3h5v32h-4l-1.102-3.035C627.121 326.547 624.616 320.75 619 315v-2c-11.314-5.748-22.039-7.904-34.656-5.492-5.348 1.79-9.812 4.705-12.532 9.652-4.165 9.664-5.121 19.714-5.078 30.14l-.005 3.149q-.003 3.273.01 6.547c.01 3.298 0 6.595-.012 9.893-.83 24.939-.83 24.939 9.5 46.603 6.359 5.407 13.14 6.214 21.32 5.957 6.33-.823 11.477-2.917 15.453-8.012 2.803-9.634 3.401-19.462 4-29.437h-20v-4h61v4h-18l.25 5.313c-.047 9.916-3.013 17.532-9.926 24.687-10.572 9.097-25.473 13.46-39.265 13.273-12.86-1.15-24.385-7.601-33.153-16.925C543.404 390.488 540.358 371.313 542 349c2.316-14.86 12.04-28.714 23.55-38.074 17.135-12.402 36.816-13.348 55.126-2.817"/><path fill="#72CFD7" d="m704.813 351.688 3.158-.05c6.758-.004 14.248.139 19.65 4.743 3.864 4.36 4.485 8.038 4.584 13.663l.06 3.032.051 3.252.063 3.346q.098 5.287.183 10.576l.131 7.172q.161 8.79.307 17.578c5.676-1.554 5.676-1.554 11-4-.568 3.978-1.494 6.826-4 10-5.197 3.014-10.03 3.937-16 3-5.553-2.41-7.203-5.797-9.336-11.172L714 411l-.996 1.355C708.358 418.26 702.518 422.592 695 424c-6.819.682-12.648.816-18.309-3.39-4.245-4.04-6.926-8.165-7.316-14.11.39-5.967 3.158-10.083 7.352-14.191C687.058 383.826 700.996 381.895 714 382a931 931 0 0 0-.312-10.25l-.069-2.934-.107-2.832-.08-2.602c-.524-2.891-1.373-4.298-3.432-6.382-2.798-.353-5.154-.47-7.937-.375l-2.17.004c-3.763.063-6.702.288-9.893 2.371a100 100 0 0 0 0 5l1 1c.375 3.313.375 3.313 0 7-2.549 2.924-4.195 3.85-8 4.563-4.104-.77-5.54-2.234-8-5.563-.73-3.81-.204-5.583 1.5-9.062 7.63-8.965 17.094-10.285 28.313-10.25"/><path fill="#73D1D9" d="m785 351 1 15 2.5-3.625c3.82-5.11 8.38-9.335 14.5-11.375 7.953-.616 15.44-1.065 22 4 5.18 5.04 7.141 11.342 7.34 18.406q-.001 3.048-.047 6.094l-.013 3.261c-.017 3.414-.054 6.826-.092 10.239q-.024 3.486-.042 6.973A3221.68 3221.68 0 0 1 832 417h14v5h-43v-4h12q-.104-11.826-.262-23.651-.053-4.023-.084-8.046c-.034-3.855-.086-7.71-.142-11.565l-.02-3.633-.06-3.397-.033-2.98c-.47-3.212-1.483-5.126-3.399-7.728-4.144-1.318-8.358-.781-12.258 1.074-6.768 4.697-10.554 11.084-12.742 18.926-.32 3.11-.371 6.21-.414 9.336l-.059 2.665c-.06 2.791-.106 5.582-.152 8.374l-.117 5.7q-.142 6.962-.258 13.925h11v5h-41v-4h13v-61h-13v-5q5.53-.254 11.063-.5l3.146-.145 3.076-.136 2.809-.127c3.3-.104 6.604-.092 9.906-.092"/><path fill="#1C2A3D" d="M347.375 234.063c10.977 1.7 21.048.95 31.915-.995 11.57-2.045 11.57-2.045 16.046-.002l2.039 1.496 2.309 1.66a560 560 0 0 1 6.753 5.278c8.186 6.42 16.42 10.482 26.313 13.625 15.932 5.105 15.932 5.105 19.41 11.414q.975 2.032 1.902 4.086l1.036 2.164c1.45 3.04 2.852 6.1 4.242 9.168 2.62 5.603 5.78 9.774 10.086 14.23C471 298 471 298 471 300h2v2h2c1.621 1.61 1.621 1.61 3.438 3.75l1.808 2.11L482 310l1.607 1.713c1.924 3.158 1.624 5.344 1.44 9.017a1374 1374 0 0 0-.139 4.089l-.081 2.16c-.457 13.137.455 24.527 4.772 37.102 1.917 5.606 3.428 10.16 1.401 15.919-1.712 3.404-3.733 6.56-5.812 9.75-6.623 10.624-10.094 20.355-12.151 32.646C471.83 429.574 470.706 434.2 465 439c-3 2.004-6.09 3.84-9.187 5.688-11.616 7.159-19.6 15.615-27.684 26.527-4.272 5.589-7.215 6.817-14.129 7.785-2.486.153-4.955.204-7.446.226-12.322.115-21.63 2.892-32.632 8.282l-2.797 1.367-2.305 1.242c-8.518 2.667-15.257.382-22.945-3.492-9.565-4.687-17.22-6.85-27.875-7.125-14.9-.384-14.9-.384-20.18-3.988l-1.695-1.825-1.988-2.136c-3.356-4.007-6.473-8.177-9.547-12.403-5.354-6.842-12.575-11.252-19.84-15.836a1591 1591 0 0 1-5.328-3.386l-2.357-1.487c-5.733-3.994-6.767-8.582-7.995-15.267l-.945-5.422c-2.58-13.886-7.86-24.13-15.157-36.121-2.678-4.506-2.592-8.962-1.418-13.982a198 198 0 0 1 2.387-7.334q.83-2.475 1.653-4.95l.746-2.178c1.524-5.012 1.699-9.296 1.445-14.54q-.07-2.163-.133-4.327a265 265 0 0 0-.272-6.74c-.424-7.932-.69-14.128 4.929-20.406A127 127 0 0 1 247 303a257 257 0 0 0 3.625-3.562l1.704-1.695c7.49-7.811 11.478-16.393 15.575-26.3 4.223-9.76 4.223-9.76 10.096-12.443 3.008-1.09 3.008-1.09 6.125-1.937 14.771-4.331 26.592-11.225 38.549-20.775 7.776-6.162 15.448-3.798 24.701-2.226m-24.625 5.5q-1.735 1.388-3.473 2.773-1.64 1.33-3.277 2.664c-10.344 8.401-23.143 13.168-36.055 16.2-4.483 1.845-6.577 5.613-8.46 9.87l-1.34 2.952-1.395 3.103c-4.51 9.668-8.672 18.081-17.355 24.617-7.382 5.855-7.382 5.855-10.99 14.301-.484 6.998-.027 13.952.442 20.94.482 9.512-1.988 18.46-5.17 27.34-1.822 5.263-2.99 10.329-.905 15.646 1.057 2.03 2.205 3.964 3.416 5.906q1.244 2.1 2.484 4.203l1.217 2.033c1.446 2.458 2.767 4.966 4.048 7.514l1.09 2.164c1.941 4.412 3.095 8.639 3.797 13.399l.432 2.867q.431 2.94.805 5.89c.754 4.793 1.413 8.172 5.126 11.473A70 70 0 0 0 261 438l1.814 1.15c1.812 1.096 3.65 2.131 5.498 3.163 10.983 6.413 18.65 14.473 26.243 24.55 3.908 5.177 3.908 5.177 9.445 8.137 1.692.17 3.388.295 5.086.395 13.215.865 24.483 2.363 36.703 7.68l2.575 1.112q2.52 1.102 5.016 2.259c4.654 2.078 7.594 3.231 12.62 1.554a241 241 0 0 0 7.893-3.543c10.533-4.925 19.405-8.004 31.107-8.457 2.066-.085 4.13-.175 6.195-.281a240 240 0 0 1 5.598-.18c6.388-1.074 9.492-5.897 13.144-10.851q1.334-1.754 2.668-3.504a252 252 0 0 0 3.883-5.274c5.407-7.114 14.178-11.352 21.762-15.828l2.938-1.77 2.605-1.511c5.827-4.755 6.162-12.21 7.394-19.176 2.325-12.062 6.384-21.632 12.918-31.95 4.6-6.982 4.6-6.982 4.692-14.984L488 368l-1.172-4.16a434 434 0 0 0-3.271-10.855c-1.367-4.875-1.592-9.048-1.338-14.122q.07-2.094.133-4.19c.067-2.176.147-4.347.272-6.521.427-7.733.632-13.736-4.831-19.859A132 132 0 0 0 473 304a280 280 0 0 1-2.855-2.812L467.813 299c-5.874-5.864-9.5-11.906-12.778-19.492l-1.052-2.432a261 261 0 0 1-2.005-4.832l-.95-2.267-.821-2.03c-2.856-4.609-7.018-6.498-12.031-8.06l-3.37-1.096q-3.462-1.094-6.929-2.172c-7.644-2.498-13.568-5.65-19.877-10.619l-1.96-1.48a365 365 0 0 1-5.04-3.895c-5.565-4.357-8.773-6.267-16-5.625q-3.444.718-6.875 1.5c-13.325 2.889-26.195 1.906-39.453-.844-7.133-1.274-10.376-.786-15.922 3.906"/><path fill="#74D2D9" d="M1143.168 352.84c7.452 4.719 13.229 10.583 15.832 19.16l1 10h-45c-.376 17.848-.376 17.848 6 35 5.122 3.267 11.176 2.643 17 2 6.594-2.01 10.284-5.908 13.781-11.707A82 82 0 0 0 1156 398h4c-1.464 8.755-5.812 16.687-13 22-7.434 4.49-15.497 5.24-24 4-11.772-4.049-19.545-10.921-25-22-3.554-8.587-3.625-20.718-.562-29.5 4.645-9.505 12.505-16.075 21.84-20.605 6.879-2.26 17.228-2.176 23.89.945"/><path fill="#73D2D9" d="M1316.168 352.84c7.452 4.719 13.229 10.583 15.832 19.16l1 10h-45c-.318 18.6-.318 18.6 6.375 35.875 7.158 2.221 14.707 2.534 21.563-.812 6.82-4.418 10.237-11.686 13.062-19.063h4c-1.464 8.755-5.812 16.687-13 22-7.43 4.487-15.501 5.248-24 4-10.766-3.777-18.564-9.966-24-20-2.65-5.65-3.523-10.66-3.437-16.875l.029-2.396c.318-10.507 3.782-16.933 11.033-24.53 9.573-8.865 24.123-13.177 36.543-7.36"/><path fill="#73D1D8" d="M848 353h42v4h-13l3.66 7.013 1.59 3.05 1.614 3.093 8.605 16.492 1.667 3.196 3.205 6.143 1.456 2.79L901 403c3.094-3.648 4.8-7.712 6.688-12.055l1.041-2.36q1.64-3.728 3.271-7.46a6891 6891 0 0 1 3.27-7.438q1.017-2.31 2.028-4.621l.94-2.144.814-1.86c1.25-2.719 2.61-5.386 3.948-8.062h-15v-4h31v4h-12l-1.121 3.656c-1.948 5.829-4.492 11.353-7.06 16.93a2326 2326 0 0 0-4.643 10.168l-1.003 2.206a1367 1367 0 0 0-7.818 17.63l-1.19 2.726a4430 4430 0 0 0-4.667 10.722C882.208 460.942 882.208 460.942 873 467l-1.875 1.25c-3.255 1.149-5.702 1.17-9.125.75-2.63-2.173-4.473-3.947-6-7-.359-3.874-.567-6.15 1.625-9.437 3.132-2.06 4.69-2.24 8.375-1.563 2.625 2.375 2.625 2.375 5 5 2.166 1.295 2.166 1.295 4 2 2.904-2.688 4.784-5.095 6.473-8.668l1.287-2.709 1.303-2.81 1.314-2.752q1.276-2.714 2.48-5.462a79.118 79.118 0 0 1 2.319-4.846c1.645-3.588 2.122-5.736.995-9.585-1.468-3.284-3.11-6.399-4.859-9.543l-1.837-3.475q-1.843-3.478-3.725-6.936a616 616 0 0 1-5.689-10.756 592 592 0 0 0-3.6-6.751c-1.843-3.453-3.527-6.956-5.172-10.508l-1.41-2.94a184 184 0 0 1-2.598-5.672c-1.247-2.558-2.296-4.544-4.281-6.587-3.384-1.053-6.477-1.196-10-1z"/><path fill="#141C33" d="M1217.957 356.738c5.208 3.217 8.476 8.387 10.043 14.262.464 4.775.464 9.518.438 14.313l.06 3.841c-.005 9.703-1.21 17.547-7.936 24.846-4.148 4.004-8.351 5.295-14.062 5.375-3.382-.095-5.372-.319-8.5-1.687-5.94-7.982-5.447-18.542-5.336-28.068.024-2.183.02-4.365.014-6.548.036-18.414.036-18.414 4.197-25.072 6.39-6.015 13.654-4.905 21.082-1.262"/><path fill="#1C2A3E" d="M361.973 312.453c5.774 4.406 9.831 9.241 11.027 16.547.424 6.364.424 6.364-2 10h-3l.105-2.852.082-3.773.106-3.727c-.317-3.947-1.353-6.237-3.293-9.648l-1-3c-1.823-1.154-1.823-1.154-4-2l-1.973-.852c-9.156-3.388-17.314-3.081-26.34.598-9.628 4.493-18.27 10.586-24.851 19.031L305 335h-2l-.332 1.773c-.744 2.481-1.764 3.821-3.356 5.852-8.694 12.841-11.311 28.17-8.832 43.309 2.262 8.784 6.98 16.939 14.52 22.066 12.385 7.182 26.851 6.12 40.453 3.035 11.196-3.267 18.214-8.326 24.485-18.035 1.606-4.537 2.025-8.546.265-13.031-1.742-3.27-2.615-4.773-6.203-5.969v-2h-45l-1-3c7.863-2.124 15.251-3.299 23.375-3.312l2.23-.016c3.611.045 6.5.357 10.031 1.328 4.814 1.244 9.46 1.306 14.41 1.3l2.83.014q2.94.008 5.88.002c3-.004 5.998.02 8.998.045q2.865.004 5.73.002l2.712.028c4.64-.034 7.264-.12 10.804-3.391 6.043-.647 6.043-.647 9.125 1.438.619.515 1.238 1.03 1.875 1.562l2.438.313c3.897 1.045 5.185 3.495 7.562 6.687 2.905-.415 3.94-.94 6.063-3.062L434 370h3c-.125 2.25-.125 2.25-1 5-3.115 2.753-4.933 3.979-9.125 4.063-3.568-1.32-4.858-2.882-6.875-6.063v-2l-2.852 1.969-3.773 2.531-1.871 1.3c-3.98 2.64-6.569 3.747-11.504 3.2-1-2-1-2-1-8h-31v2l3 1c3.526 3.727 4.355 6.628 4.625 11.75-.324 7.938-3.298 13.108-9.016 18.508-6.637 5.26-13.444 7.76-21.609 9.742l-1.859.533c-4.36.951-8.884.652-13.329.654l-3.04.038c-11.76.023-21.248-2.02-30.006-10.35-10.097-11.54-11.784-24.13-10.906-38.833L286 365c.09-1.421.09-1.421.184-2.871C287.929 349.354 296.53 337.199 305 328l1.633-1.91c13.642-15.048 36.922-25.656 55.34-13.637"/><path fill="#161E34" d="M714 387c1.033 17.899 1.033 17.899-2.625 22.938-3.392 3.463-6.598 5.955-11.613 6.148-3.84-.239-6.145-.623-9.262-2.961-3.123-4.424-2.84-8.928-2.5-14.125.932-4.1 2.9-6.363 6.242-8.93 6.036-3.675 12.95-3.321 19.758-3.07"/><path fill="#1D2B3E" d="M361.973 312.453c5.774 4.406 9.831 9.241 11.027 16.547.424 6.364.424 6.364-2 10h-3l.105-2.852.082-3.773.106-3.727c-.317-3.947-1.353-6.237-3.293-9.648l-1-3c-1.823-1.154-1.823-1.154-4-2l-1.973-.852c-9.156-3.388-17.314-3.081-26.34.598-9.628 4.493-18.27 10.586-24.851 19.031L305 335h-2l-.332 1.773c-.744 2.481-1.764 3.821-3.356 5.852-8.694 12.841-11.311 28.17-8.832 43.309 2.262 8.784 6.98 16.939 14.52 22.066a65.69 65.69 0 0 0 14 6v1c-7.294.995-12.939-2.14-19-6-7.653-6.5-13.32-17.144-14.189-27.178a157 157 0 0 1-.061-7.135l.03-2.565c.336-17.48 7.41-31.296 19.22-44.122l1.633-1.91c13.642-15.048 36.922-25.656 55.34-13.637"/><path fill="#151F35" d="M1306 354c3.641 1.753 5.5 3.316 7.875 6.563 1.85 5.651 2.014 11.77.125 17.437h-26l-.25-7.125-.11-2.208c-.086-5.07 1.215-7.775 4.36-11.667 4.207-3.606 8.691-3.833 14-3"/><path fill="#162037" d="M1133 354c3.641 1.753 5.5 3.316 7.875 6.563 1.85 5.651 2.014 11.77.125 17.437h-26l-.25-7.125-.11-2.208c-.086-5.07 1.215-7.775 4.36-11.667 4.207-3.606 8.691-3.833 14-3"/><path fill="#1E2E41" d="M408.5 364.625c3.74.4 4.711 1.051 7.5 3.375l2.438.313c3.897 1.045 5.185 3.495 7.562 6.687 2.905-.415 3.94-.94 6.063-3.062L434 370h3c-.125 2.25-.125 2.25-1 5-3.115 2.753-4.933 3.979-9.125 4.063-3.568-1.32-4.858-2.882-6.875-6.063v-2l-2.852 1.969-3.773 2.531-1.871 1.3c-3.98 2.64-6.569 3.747-11.504 3.2-1-2-1-2-1-8l-32 1v-2l-6-1v-1l3.608-.044c4.421-.058 8.842-.135 13.262-.218q2.87-.051 5.738-.084c2.751-.034 5.501-.086 8.251-.142l2.59-.02c5.778-.143 8.781-3.302 14.051-3.867"/><path fill="#1E2E46" d="M322 476c8.87.037 16.146 2.704 24.137 6.19 2.917 1.268 5.86 2.472 8.8 3.685q2.532 1.06 5.063 2.125l-1 3c-3.563-.606-6.607-1.564-9.906-3.031l-2.754-1.207-5.68-2.524-2.754-1.207-2.49-1.107c-4.051-1.55-7.968-2.046-12.28-2.24l-2.685-.127-2.764-.12-2.822-.13q-3.432-.159-6.865-.307v-1l14-1z"/><path fill="#1A273F" d="M399 477c-2.497 1.665-4.297 2.574-7.062 3.55-.792.285-1.584.57-2.4.862l-2.538.9c-5.547 1.99-10.949 4.034-16.25 6.625-4.198 2.005-7.132 2.576-11.75 2.063v-2l2.5-.848c6.044-2.097 11.907-4.293 17.703-7.009 6.658-3.108 12.328-5.274 19.797-4.143"/><path fill="#21344C" d="M422 475c-2.467 2.987-4.208 3.465-8 4-3.064.185-6.119.23-9.187.25-1.23.03-1.23.03-2.483.063-2.373.015-2.373.015-6.33-.313l-2-3c4.29-.363 8.583-.714 12.875-1.062l3.707-.315 3.535-.283 3.27-.27C420 474 420 474 422 475"/><path fill="#7FD1C7" d="M412 368c0 4 0 4-1.426 5.484l-1.887 1.266-1.863 1.297C405 377 405 377 402 377c-.359-3.23-.273-4.612 1.625-7.312 2.98-2.118 4.797-2.013 8.375-1.688"/><path fill="#1D2D42" d="m471 413 1 3h2q-.467 2.844-.937 5.688l-.528 3.199c-.467 2.715-.98 5.414-1.535 8.113l-3-1q.466-3.345.938-6.687l.527-3.762c.433-2.876.931-5.707 1.535-8.551"/><path fill="#172235" d="m307 248 2 1c-4.242 5.266-9.485 7.384-16 9l-2-1c2.658-3.163 5.851-4.541 9.563-6.25l3.503-1.64z"/><path fill="#182338" d="M482 336h1c1.324 6.43 2.248 12.43 2 19h-2c-1.589-6-2.598-11.774-2-18z"/><path fill="#161F36" d="M375 485c-2.572 3-5.35 4.526-9 6-3.875.188-3.875.188-7 0v-2q3.433-1.294 6.875-2.562l1.973-.749c4.925-1.802 4.925-1.802 7.152-.689"/><path fill="#253C54" d="m322 476 9 1v2h-23v-1l14-1z"/><path fill="#23323E" d="m373 235 1 3c-3.674 1.176-7.17 1.074-11 1v-1l-6-1v-1c5.349-.592 10.609-1.142 16-1"/><path fill="#131C32" d="M242 310v3l-1 1c-.235 2.35-.414 4.706-.562 7.063l-.254 3.91L240 328l-2-1c-.108-2.27-.186-4.541-.25-6.812l-.14-3.833c.39-3.355.39-3.355 2.406-5.304z"/><path fill="#283D4B" d="m481 326 3 2c.221 2.789.281 5.347.188 8.125l-.042 2.285A476 476 0 0 1 484 344h-1l-1-7h-1z"/><path fill="#202F42" d="M485 352c1.903 2.855 2.462 4.42 3.125 7.688l.508 2.449L489 364h-3a367 367 0 0 1-1.062-4.312l-.598-2.426C484 355 484 355 485 352"/><path fill="#223445" d="m235 357 1 2h2l-2 8-4 1z"/><path fill="#23374B" d="m471 413 1 3h2l-1 9-3-2z"/><path fill="#263843" d="M294 255c-5.625 5-5.625 5-9 5v-2l-2-1q2.183-.794 4.375-1.562l2.46-.88C292 254 292 254 294 255"/><path fill="#283A45" d="M437 258c3.625.375 3.625.375 7 1l-1 3-8-2z"/><path fill="#273942" d="m339 233 8 1-3 1v2l-9-1 4-1z"/><path fill="#1F2D3B" d="m330 232 9 1v2h-9z"/><path fill="#203348" d="M250 410h1l1 9-3 2-1-7h2z"/></svg>